<svg xmlns="http://www.w3.org/2000/svg" xmlns:xlink="http://www.w3.org/1999/xlink" width="450" zoomAndPan="magnify" viewBox="0 0 337.5 112.499997" height="150" preserveAspectRatio="xMidYMid meet" version="1.0"><defs><g/></defs><path fill="#fff9e6" d="M 44.980469 19.242188 L 293.882812 19.242188 C 304.09375 19.242188 312.371094 27.523438 312.371094 37.742188 L 312.371094 74.742188 C 312.371094 84.960938 304.09375 93.246094 293.882812 93.246094 L 44.980469 93.246094 C 34.769531 93.246094 26.488281 84.960938 26.488281 74.742188 L 26.488281 37.742188 C 26.488281 27.523438 34.769531 19.242188 44.980469 19.242188 " fill-opacity="1" fill-rule="nonzero"/><g fill="#ffc600" fill-opacity="1"><g transform="translate(44.089667, 71.076244)"><g><path d="M 23.421875 -19.34375 C 23.421875 -16.820312 22.90625 -14.390625 21.875 -12.046875 C 20.84375 -9.710938 19.457031 -7.644531 17.71875 -5.84375 C 15.988281 -4.039062 13.96875 -2.597656 11.65625 -1.515625 C 9.351562 -0.441406 6.929688 0.09375 4.390625 0.09375 L 4.296875 0.09375 C 3.785156 0.09375 3.363281 -0.140625 3.03125 -0.609375 C 2.695312 -1.085938 2.414062 -1.6875 2.1875 -2.40625 C 1.957031 -3.125 1.785156 -3.925781 1.671875 -4.8125 C 1.554688 -5.695312 1.46875 -6.5625 1.40625 -7.40625 C 1.351562 -8.257812 1.328125 -9.019531 1.328125 -9.6875 C 1.328125 -10.363281 1.328125 -10.875 1.328125 -11.21875 C 1.328125 -12.195312 1.34375 -13.164062 1.375 -14.125 C 1.40625 -15.082031 1.445312 -16.046875 1.5 -17.015625 C 1.5 -17.335938 1.519531 -17.804688 1.5625 -18.421875 C 1.613281 -19.035156 1.664062 -19.726562 1.71875 -20.5 C 1.78125 -21.269531 1.851562 -22.078125 1.9375 -22.921875 C 2.019531 -23.773438 2.109375 -24.566406 2.203125 -25.296875 C 2.304688 -26.023438 2.410156 -26.664062 2.515625 -27.21875 C 2.617188 -27.78125 2.738281 -28.164062 2.875 -28.375 C 3.25 -29 3.820312 -29.554688 4.59375 -30.046875 C 5.375 -30.535156 6.210938 -30.9375 7.109375 -31.25 C 8.015625 -31.5625 8.929688 -31.796875 9.859375 -31.953125 C 10.796875 -32.109375 11.609375 -32.1875 12.296875 -32.1875 C 14.179688 -32.1875 15.816406 -31.835938 17.203125 -31.140625 C 18.597656 -30.441406 19.757812 -29.492188 20.6875 -28.296875 C 21.625 -27.109375 22.3125 -25.738281 22.75 -24.1875 C 23.195312 -22.644531 23.421875 -21.03125 23.421875 -19.34375 Z M 16.203125 -18.09375 C 16.203125 -18.726562 16.085938 -19.375 15.859375 -20.03125 C 15.628906 -20.6875 15.304688 -21.285156 14.890625 -21.828125 C 14.472656 -22.378906 13.972656 -22.816406 13.390625 -23.140625 C 12.804688 -23.472656 12.15625 -23.640625 11.4375 -23.640625 C 10.832031 -23.640625 10.210938 -23.5 9.578125 -23.21875 C 9.441406 -23.125 9.316406 -22.851562 9.203125 -22.40625 C 9.085938 -21.96875 8.992188 -21.429688 8.921875 -20.796875 C 8.847656 -20.171875 8.78125 -19.484375 8.71875 -18.734375 C 8.664062 -17.992188 8.628906 -17.285156 8.609375 -16.609375 C 8.597656 -15.941406 8.582031 -15.347656 8.5625 -14.828125 C 8.550781 -14.316406 8.546875 -13.972656 8.546875 -13.796875 C 8.546875 -13.515625 8.546875 -13.09375 8.546875 -12.53125 C 8.546875 -11.96875 8.566406 -11.414062 8.609375 -10.875 C 8.660156 -10.332031 8.710938 -9.859375 8.765625 -9.453125 C 8.828125 -9.054688 8.925781 -8.859375 9.0625 -8.859375 C 9.925781 -8.859375 10.78125 -9.191406 11.625 -9.859375 C 12.46875 -10.535156 13.234375 -11.359375 13.921875 -12.328125 C 14.609375 -13.304688 15.160156 -14.328125 15.578125 -15.390625 C 15.992188 -16.453125 16.203125 -17.351562 16.203125 -18.09375 Z M 16.203125 -18.09375 "/></g></g><g transform="translate(68.15794, 71.076244)"><g><path d="M 9.453125 1.25 C 7.992188 1.25 6.71875 0.859375 5.625 0.078125 C 4.539062 -0.691406 3.625 -1.675781 2.875 -2.875 C 2.132812 -4.082031 1.578125 -5.421875 1.203125 -6.890625 C 0.828125 -8.367188 0.640625 -9.828125 0.640625 -11.265625 C 0.640625 -12.785156 0.828125 -14.351562 1.203125 -15.96875 C 1.578125 -17.582031 2.148438 -19.054688 2.921875 -20.390625 C 3.691406 -21.722656 4.675781 -22.8125 5.875 -23.65625 C 7.082031 -24.507812 8.519531 -24.9375 10.1875 -24.9375 C 11.789062 -24.9375 13.15625 -24.5 14.28125 -23.625 C 15.414062 -22.75 16.328125 -21.65625 17.015625 -20.34375 C 17.703125 -19.039062 18.1875 -17.613281 18.46875 -16.0625 C 18.757812 -14.519531 18.863281 -13.0625 18.78125 -11.6875 C 18.695312 -10.164062 18.460938 -8.628906 18.078125 -7.078125 C 17.691406 -5.535156 17.125 -4.148438 16.375 -2.921875 C 15.632812 -1.691406 14.691406 -0.691406 13.546875 0.078125 C 12.398438 0.859375 11.035156 1.25 9.453125 1.25 Z M 9.890625 -18.1875 C 9.453125 -18.1875 9.066406 -17.957031 8.734375 -17.5 C 8.410156 -17.039062 8.140625 -16.476562 7.921875 -15.8125 C 7.710938 -15.15625 7.550781 -14.460938 7.4375 -13.734375 C 7.320312 -13.003906 7.265625 -12.367188 7.265625 -11.828125 C 7.265625 -11.128906 7.328125 -10.378906 7.453125 -9.578125 C 7.585938 -8.773438 7.769531 -8.035156 8 -7.359375 C 8.226562 -6.691406 8.503906 -6.132812 8.828125 -5.6875 C 9.160156 -5.25 9.539062 -5.03125 9.96875 -5.03125 C 10.425781 -5.03125 10.820312 -5.242188 11.15625 -5.671875 C 11.488281 -6.097656 11.753906 -6.640625 11.953125 -7.296875 C 12.148438 -7.960938 12.289062 -8.6875 12.375 -9.46875 C 12.46875 -10.257812 12.515625 -11 12.515625 -11.6875 C 12.515625 -12.320312 12.457031 -13.019531 12.34375 -13.78125 C 12.226562 -14.539062 12.0625 -15.25 11.84375 -15.90625 C 11.625 -16.5625 11.347656 -17.101562 11.015625 -17.53125 C 10.691406 -17.96875 10.316406 -18.1875 9.890625 -18.1875 Z M 9.890625 -18.1875 "/></g></g><g transform="translate(87.84235, 71.076244)"><g><path d="M 20.109375 -12.296875 C 20.109375 -10.710938 19.953125 -9.144531 19.640625 -7.59375 C 19.328125 -6.050781 18.796875 -4.671875 18.046875 -3.453125 C 17.304688 -2.242188 16.3125 -1.265625 15.0625 -0.515625 C 13.820312 0.234375 12.269531 0.609375 10.40625 0.609375 C 8.570312 0.609375 7.035156 0.242188 5.796875 -0.484375 C 4.566406 -1.222656 3.585938 -2.191406 2.859375 -3.390625 C 2.128906 -4.597656 1.613281 -5.957031 1.3125 -7.46875 C 1.007812 -8.988281 0.859375 -10.539062 0.859375 -12.125 C 0.859375 -13.84375 1.0625 -15.546875 1.46875 -17.234375 C 1.550781 -17.691406 1.710938 -18.328125 1.953125 -19.140625 C 2.203125 -19.960938 2.519531 -20.765625 2.90625 -21.546875 C 3.289062 -22.335938 3.734375 -23.019531 4.234375 -23.59375 C 4.734375 -24.164062 5.285156 -24.453125 5.890625 -24.453125 C 6.460938 -24.453125 6.921875 -24.296875 7.265625 -23.984375 C 7.609375 -23.671875 7.878906 -23.273438 8.078125 -22.796875 C 8.273438 -22.328125 8.398438 -21.828125 8.453125 -21.296875 C 8.515625 -20.765625 8.546875 -20.285156 8.546875 -19.859375 C 8.546875 -19.203125 8.492188 -18.554688 8.390625 -17.921875 C 8.296875 -17.296875 8.191406 -16.664062 8.078125 -16.03125 C 7.960938 -15.175781 7.851562 -14.316406 7.75 -13.453125 C 7.65625 -12.597656 7.609375 -11.738281 7.609375 -10.875 C 7.609375 -10.445312 7.628906 -9.96875 7.671875 -9.4375 C 7.710938 -8.90625 7.816406 -8.394531 7.984375 -7.90625 C 8.160156 -7.414062 8.40625 -7.003906 8.71875 -6.671875 C 9.039062 -6.347656 9.488281 -6.1875 10.0625 -6.1875 C 10.800781 -6.1875 11.394531 -6.382812 11.84375 -6.78125 C 12.289062 -7.1875 12.617188 -7.691406 12.828125 -8.296875 C 13.046875 -8.898438 13.179688 -9.546875 13.234375 -10.234375 C 13.296875 -10.921875 13.328125 -11.550781 13.328125 -12.125 C 13.328125 -13.382812 13.238281 -14.625 13.0625 -15.84375 C 12.894531 -17.0625 12.738281 -18.300781 12.59375 -19.5625 C 12.5625 -19.695312 12.546875 -19.894531 12.546875 -20.15625 C 12.546875 -20.582031 12.617188 -21.007812 12.765625 -21.4375 C 12.910156 -21.875 13.109375 -22.265625 13.359375 -22.609375 C 13.617188 -22.953125 13.9375 -23.226562 14.3125 -23.4375 C 14.6875 -23.65625 15.101562 -23.765625 15.5625 -23.765625 C 16.1875 -23.765625 16.742188 -23.539062 17.234375 -23.09375 C 17.722656 -22.65625 18.128906 -22.082031 18.453125 -21.375 C 18.785156 -20.675781 19.054688 -19.890625 19.265625 -19.015625 C 19.484375 -18.140625 19.65625 -17.28125 19.78125 -16.4375 C 19.914062 -15.59375 20.003906 -14.796875 20.046875 -14.046875 C 20.085938 -13.304688 20.109375 -12.722656 20.109375 -12.296875 Z M 20.109375 -12.296875 "/></g></g><g transform="translate(109.288901, 71.076244)"><g><path d="M 21.625 -14.1875 C 21.625 -13.351562 21.554688 -12.410156 21.421875 -11.359375 C 21.296875 -10.316406 21.097656 -9.25 20.828125 -8.15625 C 20.554688 -7.070312 20.195312 -6.015625 19.75 -4.984375 C 19.300781 -3.953125 18.753906 -3.023438 18.109375 -2.203125 C 17.472656 -1.390625 16.726562 -0.738281 15.875 -0.25 C 15.03125 0.226562 14.050781 0.46875 12.9375 0.46875 C 11.757812 0.46875 10.691406 0.195312 9.734375 -0.34375 C 8.773438 -0.882812 7.953125 -1.628906 7.265625 -2.578125 C 7.179688 -1.804688 6.863281 -1.125 6.3125 -0.53125 C 5.769531 0.0507812 5.082031 0.34375 4.25 0.34375 C 3.769531 0.34375 3.363281 0.0976562 3.03125 -0.390625 C 2.695312 -0.878906 2.429688 -1.5 2.234375 -2.25 C 2.035156 -3.007812 1.882812 -3.847656 1.78125 -4.765625 C 1.6875 -5.679688 1.625 -6.566406 1.59375 -7.421875 C 1.5625 -8.285156 1.546875 -9.0625 1.546875 -9.75 C 1.546875 -10.4375 1.546875 -10.925781 1.546875 -11.21875 C 1.546875 -12.195312 1.550781 -13.171875 1.5625 -14.140625 C 1.582031 -15.117188 1.609375 -16.109375 1.640625 -17.109375 C 1.640625 -17.597656 1.628906 -18.328125 1.609375 -19.296875 C 1.597656 -20.273438 1.601562 -21.359375 1.625 -22.546875 C 1.65625 -23.734375 1.722656 -24.945312 1.828125 -26.1875 C 1.929688 -27.4375 2.109375 -28.578125 2.359375 -29.609375 C 2.617188 -30.640625 2.976562 -31.484375 3.4375 -32.140625 C 3.894531 -32.804688 4.484375 -33.15625 5.203125 -33.1875 C 5.773438 -33.1875 6.257812 -32.984375 6.65625 -32.578125 C 7.0625 -32.179688 7.398438 -31.648438 7.671875 -30.984375 C 7.941406 -30.328125 8.15625 -29.585938 8.3125 -28.765625 C 8.46875 -27.953125 8.582031 -27.140625 8.65625 -26.328125 C 8.726562 -25.515625 8.769531 -24.738281 8.78125 -24 C 8.800781 -23.269531 8.8125 -22.675781 8.8125 -22.21875 C 8.8125 -22.132812 8.800781 -21.941406 8.78125 -21.640625 C 8.769531 -21.335938 8.765625 -21.015625 8.765625 -20.671875 C 8.765625 -20.328125 8.765625 -20.019531 8.765625 -19.75 C 8.765625 -19.476562 8.765625 -19.328125 8.765625 -19.296875 C 9.023438 -19.835938 9.394531 -20.363281 9.875 -20.875 C 10.363281 -21.394531 10.910156 -21.859375 11.515625 -22.265625 C 12.117188 -22.671875 12.75 -23 13.40625 -23.25 C 14.070312 -23.507812 14.703125 -23.640625 15.296875 -23.640625 C 16.503906 -23.640625 17.515625 -23.332031 18.328125 -22.71875 C 19.148438 -22.101562 19.800781 -21.320312 20.28125 -20.375 C 20.769531 -19.425781 21.113281 -18.398438 21.3125 -17.296875 C 21.519531 -16.191406 21.625 -15.15625 21.625 -14.1875 Z M 15.296875 -12.890625 C 15.296875 -13.234375 15.273438 -13.601562 15.234375 -14 C 15.191406 -14.40625 15.09375 -14.78125 14.9375 -15.125 C 14.78125 -15.46875 14.566406 -15.753906 14.296875 -15.984375 C 14.023438 -16.210938 13.671875 -16.328125 13.234375 -16.328125 C 12.773438 -16.328125 12.320312 -16.226562 11.875 -16.03125 C 11.4375 -15.832031 11.015625 -15.570312 10.609375 -15.25 C 10.210938 -14.9375 9.84375 -14.601562 9.5 -14.25 C 9.15625 -13.894531 8.851562 -13.546875 8.59375 -13.203125 L 8.171875 -9.375 C 8.628906 -8.707031 9.1875 -8.179688 9.84375 -7.796875 C 10.5 -7.410156 11.242188 -7.21875 12.078125 -7.21875 C 12.710938 -7.21875 13.234375 -7.414062 13.640625 -7.8125 C 14.054688 -8.21875 14.382812 -8.710938 14.625 -9.296875 C 14.875 -9.890625 15.046875 -10.515625 15.140625 -11.171875 C 15.242188 -11.835938 15.296875 -12.410156 15.296875 -12.890625 Z M 15.296875 -12.890625 "/></g></g><g transform="translate(132.23972, 71.076244)"><g><path d="M 9.328125 -26.046875 C 9.328125 -24.503906 9.257812 -22.953125 9.125 -21.390625 C 9 -19.828125 8.9375 -18.253906 8.9375 -16.671875 C 8.9375 -14.640625 9 -12.601562 9.125 -10.5625 C 9.257812 -8.53125 9.328125 -6.484375 9.328125 -4.421875 C 9.328125 -3.910156 9.296875 -3.332031 9.234375 -2.6875 C 9.179688 -2.039062 9.046875 -1.445312 8.828125 -0.90625 C 8.617188 -0.363281 8.296875 0.09375 7.859375 0.46875 C 7.429688 0.84375 6.859375 1.03125 6.140625 1.03125 C 5.453125 1.03125 4.859375 0.691406 4.359375 0.015625 C 3.859375 -0.648438 3.441406 -1.503906 3.109375 -2.546875 C 2.785156 -3.597656 2.515625 -4.769531 2.296875 -6.0625 C 2.085938 -7.351562 1.929688 -8.609375 1.828125 -9.828125 C 1.722656 -11.046875 1.648438 -12.160156 1.609375 -13.171875 C 1.566406 -14.191406 1.546875 -14.945312 1.546875 -15.4375 C 1.546875 -15.976562 1.566406 -16.765625 1.609375 -17.796875 C 1.648438 -18.828125 1.742188 -19.941406 1.890625 -21.140625 C 2.035156 -22.347656 2.226562 -23.570312 2.46875 -24.8125 C 2.71875 -26.0625 3.039062 -27.195312 3.4375 -28.21875 C 3.84375 -29.238281 4.320312 -30.066406 4.875 -30.703125 C 5.4375 -31.347656 6.101562 -31.671875 6.875 -31.671875 C 7.507812 -31.671875 7.988281 -31.460938 8.3125 -31.046875 C 8.644531 -30.640625 8.878906 -30.140625 9.015625 -29.546875 C 9.160156 -28.960938 9.25 -28.347656 9.28125 -27.703125 C 9.3125 -27.054688 9.328125 -26.503906 9.328125 -26.046875 Z M 9.328125 -26.046875 "/></g></g><g transform="translate(143.543212, 71.076244)"><g><path d="M 19.296875 -7.65625 C 19.296875 -6.675781 18.988281 -5.71875 18.375 -4.78125 C 17.757812 -3.851562 16.984375 -3.023438 16.046875 -2.296875 C 15.117188 -1.566406 14.125 -0.976562 13.0625 -0.53125 C 12.007812 -0.09375 11.035156 0.125 10.140625 0.125 C 8.617188 0.125 7.265625 -0.253906 6.078125 -1.015625 C 4.890625 -1.773438 3.894531 -2.738281 3.09375 -3.90625 C 2.289062 -5.082031 1.679688 -6.378906 1.265625 -7.796875 C 0.847656 -9.210938 0.640625 -10.597656 0.640625 -11.953125 C 0.640625 -13.378906 0.835938 -14.910156 1.234375 -16.546875 C 1.640625 -18.179688 2.25 -19.6875 3.0625 -21.0625 C 3.882812 -22.4375 4.914062 -23.582031 6.15625 -24.5 C 7.40625 -25.414062 8.890625 -25.875 10.609375 -25.875 C 11.585938 -25.875 12.519531 -25.707031 13.40625 -25.375 C 14.300781 -25.050781 15.078125 -24.585938 15.734375 -23.984375 C 16.390625 -23.378906 16.914062 -22.660156 17.3125 -21.828125 C 17.71875 -21.003906 17.921875 -20.078125 17.921875 -19.046875 C 17.921875 -17.691406 17.632812 -16.425781 17.0625 -15.25 C 16.488281 -14.082031 15.726562 -13.066406 14.78125 -12.203125 C 13.84375 -11.347656 12.753906 -10.65625 11.515625 -10.125 C 10.285156 -9.59375 9.023438 -9.296875 7.734375 -9.234375 C 7.847656 -8.410156 8.179688 -7.8125 8.734375 -7.4375 C 9.296875 -7.0625 9.96875 -6.875 10.75 -6.875 C 11.320312 -6.875 11.878906 -7.015625 12.421875 -7.296875 C 12.960938 -7.585938 13.488281 -7.910156 14 -8.265625 C 14.519531 -8.628906 15.03125 -8.953125 15.53125 -9.234375 C 16.039062 -9.523438 16.550781 -9.671875 17.0625 -9.671875 C 17.632812 -9.671875 18.148438 -9.484375 18.609375 -9.109375 C 19.066406 -8.734375 19.296875 -8.25 19.296875 -7.65625 Z M 12.34375 -18.1875 C 12.34375 -18.550781 12.238281 -18.929688 12.03125 -19.328125 C 11.832031 -19.734375 11.519531 -19.9375 11.09375 -19.9375 C 10.457031 -19.9375 9.925781 -19.769531 9.5 -19.4375 C 9.070312 -19.113281 8.710938 -18.703125 8.421875 -18.203125 C 8.140625 -17.703125 7.914062 -17.164062 7.75 -16.59375 C 7.59375 -16.019531 7.503906 -15.488281 7.484375 -15 C 7.878906 -15.082031 8.351562 -15.195312 8.90625 -15.34375 C 9.46875 -15.488281 10 -15.679688 10.5 -15.921875 C 11.007812 -16.171875 11.441406 -16.476562 11.796875 -16.84375 C 12.160156 -17.21875 12.34375 -17.664062 12.34375 -18.1875 Z M 12.34375 -18.1875 "/></g></g></g><g fill="#5047ed" fill-opacity="1"><g transform="translate(163.269645, 71.076244)"><g><path d="M 22.265625 -22.609375 C 22.265625 -20.628906 21.804688 -18.851562 20.890625 -17.28125 C 19.972656 -15.707031 18.753906 -14.316406 17.234375 -13.109375 C 17.691406 -12.421875 18.164062 -11.617188 18.65625 -10.703125 C 19.144531 -9.785156 19.582031 -8.816406 19.96875 -7.796875 C 20.351562 -6.785156 20.664062 -5.769531 20.90625 -4.75 C 21.15625 -3.726562 21.28125 -2.789062 21.28125 -1.9375 C 21.28125 -1.019531 21.054688 -0.195312 20.609375 0.53125 C 20.160156 1.269531 19.410156 1.640625 18.359375 1.640625 C 17.460938 1.640625 16.691406 1.207031 16.046875 0.34375 C 15.410156 -0.519531 14.835938 -1.546875 14.328125 -2.734375 C 13.828125 -3.921875 13.367188 -5.128906 12.953125 -6.359375 C 12.546875 -7.585938 12.15625 -8.578125 11.78125 -9.328125 C 11.257812 -9.148438 10.753906 -8.953125 10.265625 -8.734375 C 9.785156 -8.523438 9.285156 -8.320312 8.765625 -8.125 C 8.734375 -7.488281 8.679688 -6.617188 8.609375 -5.515625 C 8.546875 -4.421875 8.390625 -3.328125 8.140625 -2.234375 C 7.898438 -1.148438 7.535156 -0.207031 7.046875 0.59375 C 6.554688 1.40625 5.882812 1.8125 5.03125 1.8125 C 4.082031 1.8125 3.347656 1.421875 2.828125 0.640625 C 2.316406 -0.128906 1.953125 -1.046875 1.734375 -2.109375 C 1.523438 -3.171875 1.40625 -4.25 1.375 -5.34375 C 1.34375 -6.445312 1.328125 -7.316406 1.328125 -7.953125 C 1.328125 -9.296875 1.351562 -10.617188 1.40625 -11.921875 C 1.46875 -13.234375 1.5 -14.5625 1.5 -15.90625 C 1.5 -17.132812 1.476562 -18.363281 1.4375 -19.59375 C 1.394531 -20.832031 1.375 -22.082031 1.375 -23.34375 C 1.375 -23.625 1.375 -23.988281 1.375 -24.4375 C 1.375 -24.882812 1.394531 -25.34375 1.4375 -25.8125 C 1.476562 -26.28125 1.523438 -26.726562 1.578125 -27.15625 C 1.640625 -27.59375 1.742188 -27.941406 1.890625 -28.203125 C 2.179688 -28.796875 2.832031 -29.363281 3.84375 -29.90625 C 4.863281 -30.457031 5.984375 -30.941406 7.203125 -31.359375 C 8.421875 -31.773438 9.609375 -32.101562 10.765625 -32.34375 C 11.929688 -32.582031 12.800781 -32.703125 13.375 -32.703125 C 14.832031 -32.703125 16.117188 -32.429688 17.234375 -31.890625 C 18.347656 -31.347656 19.273438 -30.609375 20.015625 -29.671875 C 20.765625 -28.742188 21.328125 -27.671875 21.703125 -26.453125 C 22.078125 -25.234375 22.265625 -23.953125 22.265625 -22.609375 Z M 14.3125 -22.015625 C 14.3125 -22.753906 14.140625 -23.316406 13.796875 -23.703125 C 13.453125 -24.085938 12.894531 -24.28125 12.125 -24.28125 C 11.550781 -24.28125 10.96875 -24.179688 10.375 -23.984375 C 9.789062 -23.785156 9.253906 -23.554688 8.765625 -23.296875 C 8.878906 -21.035156 8.921875 -18.785156 8.890625 -16.546875 C 9.492188 -16.742188 10.109375 -17 10.734375 -17.3125 C 11.367188 -17.632812 11.953125 -18.023438 12.484375 -18.484375 C 13.015625 -18.941406 13.453125 -19.457031 13.796875 -20.03125 C 14.140625 -20.601562 14.3125 -21.265625 14.3125 -22.015625 Z M 14.3125 -22.015625 "/></g></g><g transform="translate(185.747694, 71.076244)"><g><path d="M 9.453125 1.25 C 7.992188 1.25 6.71875 0.859375 5.625 0.078125 C 4.539062 -0.691406 3.625 -1.675781 2.875 -2.875 C 2.132812 -4.082031 1.578125 -5.421875 1.203125 -6.890625 C 0.828125 -8.367188 0.640625 -9.828125 0.640625 -11.265625 C 0.640625 -12.785156 0.828125 -14.351562 1.203125 -15.96875 C 1.578125 -17.582031 2.148438 -19.054688 2.921875 -20.390625 C 3.691406 -21.722656 4.675781 -22.8125 5.875 -23.65625 C 7.082031 -24.507812 8.519531 -24.9375 10.1875 -24.9375 C 11.789062 -24.9375 13.15625 -24.5 14.28125 -23.625 C 15.414062 -22.75 16.328125 -21.65625 17.015625 -20.34375 C 17.703125 -19.039062 18.1875 -17.613281 18.46875 -16.0625 C 18.757812 -14.519531 18.863281 -13.0625 18.78125 -11.6875 C 18.695312 -10.164062 18.460938 -8.628906 18.078125 -7.078125 C 17.691406 -5.535156 17.125 -4.148438 16.375 -2.921875 C 15.632812 -1.691406 14.691406 -0.691406 13.546875 0.078125 C 12.398438 0.859375 11.035156 1.25 9.453125 1.25 Z M 9.890625 -18.1875 C 9.453125 -18.1875 9.066406 -17.957031 8.734375 -17.5 C 8.410156 -17.039062 8.140625 -16.476562 7.921875 -15.8125 C 7.710938 -15.15625 7.550781 -14.460938 7.4375 -13.734375 C 7.320312 -13.003906 7.265625 -12.367188 7.265625 -11.828125 C 7.265625 -11.128906 7.328125 -10.378906 7.453125 -9.578125 C 7.585938 -8.773438 7.769531 -8.035156 8 -7.359375 C 8.226562 -6.691406 8.503906 -6.132812 8.828125 -5.6875 C 9.160156 -5.25 9.539062 -5.03125 9.96875 -5.03125 C 10.425781 -5.03125 10.820312 -5.242188 11.15625 -5.671875 C 11.488281 -6.097656 11.753906 -6.640625 11.953125 -7.296875 C 12.148438 -7.960938 12.289062 -8.6875 12.375 -9.46875 C 12.46875 -10.257812 12.515625 -11 12.515625 -11.6875 C 12.515625 -12.320312 12.457031 -13.019531 12.34375 -13.78125 C 12.226562 -14.539062 12.0625 -15.25 11.84375 -15.90625 C 11.625 -16.5625 11.347656 -17.101562 11.015625 -17.53125 C 10.691406 -17.96875 10.316406 -18.1875 9.890625 -18.1875 Z M 9.890625 -18.1875 "/></g></g><g transform="translate(205.432104, 71.076244)"><g><path d="M 17.234375 -16.5 C 17.234375 -16.363281 17.21875 -16.210938 17.1875 -16.046875 C 17.164062 -15.890625 17.125 -15.742188 17.0625 -15.609375 C 16.800781 -14.941406 16.398438 -14.382812 15.859375 -13.9375 C 15.316406 -13.5 14.671875 -13.28125 13.921875 -13.28125 C 12.804688 -13.28125 12.050781 -13.835938 11.65625 -14.953125 C 11.59375 -15.097656 11.5625 -15.265625 11.5625 -15.453125 C 11.5625 -15.640625 11.546875 -15.832031 11.515625 -16.03125 L 11.515625 -17.28125 C 11.460938 -17.675781 11.363281 -17.988281 11.21875 -18.21875 C 11.070312 -18.445312 10.828125 -18.5625 10.484375 -18.5625 C 9.992188 -18.5625 9.523438 -18.253906 9.078125 -17.640625 C 8.640625 -17.023438 8.253906 -16.296875 7.921875 -15.453125 C 7.597656 -14.609375 7.332031 -13.738281 7.125 -12.84375 C 6.925781 -11.957031 6.828125 -11.242188 6.828125 -10.703125 C 6.828125 -10.273438 6.851562 -9.75 6.90625 -9.125 C 6.96875 -8.507812 7.082031 -7.914062 7.25 -7.34375 C 7.425781 -6.769531 7.664062 -6.273438 7.96875 -5.859375 C 8.269531 -5.453125 8.664062 -5.25 9.15625 -5.25 C 9.644531 -5.25 10.097656 -5.394531 10.515625 -5.6875 C 10.929688 -5.988281 11.335938 -6.34375 11.734375 -6.75 C 12.109375 -7.09375 12.515625 -7.445312 12.953125 -7.8125 C 13.398438 -8.1875 13.910156 -8.375 14.484375 -8.375 C 15.203125 -8.375 15.769531 -8.113281 16.1875 -7.59375 C 16.601562 -7.082031 16.8125 -6.5 16.8125 -5.84375 C 16.8125 -4.875 16.550781 -3.960938 16.03125 -3.109375 C 15.519531 -2.265625 14.875 -1.535156 14.09375 -0.921875 C 13.320312 -0.304688 12.460938 0.175781 11.515625 0.53125 C 10.566406 0.894531 9.664062 1.078125 8.8125 1.078125 C 7.257812 1.078125 5.945312 0.691406 4.875 -0.078125 C 3.800781 -0.859375 2.9375 -1.84375 2.28125 -3.03125 C 1.625 -4.21875 1.148438 -5.515625 0.859375 -6.921875 C 0.578125 -8.328125 0.4375 -9.660156 0.4375 -10.921875 C 0.4375 -12.378906 0.632812 -13.957031 1.03125 -15.65625 C 1.4375 -17.363281 2.050781 -18.945312 2.875 -20.40625 C 3.707031 -21.875 4.773438 -23.09375 6.078125 -24.0625 C 7.378906 -25.039062 8.9375 -25.53125 10.75 -25.53125 C 11.863281 -25.53125 12.828125 -25.285156 13.640625 -24.796875 C 14.460938 -24.316406 15.140625 -23.679688 15.671875 -22.890625 C 16.203125 -22.097656 16.601562 -21.210938 16.875 -20.234375 C 17.144531 -19.265625 17.28125 -18.304688 17.28125 -17.359375 C 17.28125 -17.222656 17.28125 -17.082031 17.28125 -16.9375 C 17.28125 -16.789062 17.265625 -16.644531 17.234375 -16.5 Z M 17.234375 -16.5 "/></g></g><g transform="translate(223.784162, 71.076244)"><g><path d="M 20.375 -23.125 C 20.375 -22.320312 20.164062 -21.503906 19.75 -20.671875 C 19.332031 -19.835938 18.828125 -19.015625 18.234375 -18.203125 C 17.648438 -17.390625 17.035156 -16.613281 16.390625 -15.875 C 15.753906 -15.144531 15.191406 -14.484375 14.703125 -13.890625 C 15.097656 -13.253906 15.597656 -12.410156 16.203125 -11.359375 C 16.804688 -10.316406 17.378906 -9.207031 17.921875 -8.03125 C 18.460938 -6.863281 18.925781 -5.71875 19.3125 -4.59375 C 19.707031 -3.476562 19.90625 -2.550781 19.90625 -1.8125 C 19.90625 -1.207031 19.71875 -0.648438 19.34375 -0.140625 C 18.96875 0.359375 18.453125 0.609375 17.796875 0.609375 C 17.304688 0.609375 16.8125 0.398438 16.3125 -0.015625 C 15.8125 -0.429688 15.3125 -0.976562 14.8125 -1.65625 C 14.3125 -2.332031 13.832031 -3.082031 13.375 -3.90625 C 12.914062 -4.738281 12.488281 -5.554688 12.09375 -6.359375 C 11.707031 -7.160156 11.363281 -7.910156 11.0625 -8.609375 C 10.757812 -9.316406 10.523438 -9.882812 10.359375 -10.3125 C 9.984375 -9.9375 9.585938 -9.628906 9.171875 -9.390625 C 8.753906 -9.148438 8.347656 -8.867188 7.953125 -8.546875 C 7.953125 -7.953125 7.929688 -7.109375 7.890625 -6.015625 C 7.847656 -4.929688 7.71875 -3.859375 7.5 -2.796875 C 7.28125 -1.734375 6.925781 -0.804688 6.4375 -0.015625 C 5.957031 0.765625 5.242188 1.15625 4.296875 1.15625 C 3.554688 1.15625 2.984375 0.816406 2.578125 0.140625 C 2.179688 -0.523438 1.890625 -1.304688 1.703125 -2.203125 C 1.515625 -3.109375 1.40625 -4.023438 1.375 -4.953125 C 1.34375 -5.890625 1.328125 -6.601562 1.328125 -7.09375 C 1.328125 -9.207031 1.382812 -11.328125 1.5 -13.453125 C 1.613281 -15.578125 1.6875 -17.695312 1.71875 -19.8125 C 1.71875 -20.300781 1.722656 -20.9375 1.734375 -21.71875 C 1.753906 -22.507812 1.804688 -23.363281 1.890625 -24.28125 C 1.972656 -25.195312 2.097656 -26.128906 2.265625 -27.078125 C 2.441406 -28.023438 2.6875 -28.878906 3 -29.640625 C 3.320312 -30.398438 3.734375 -31.015625 4.234375 -31.484375 C 4.734375 -31.953125 5.34375 -32.1875 6.0625 -32.1875 C 6.570312 -32.1875 7.003906 -31.992188 7.359375 -31.609375 C 7.722656 -31.222656 8.007812 -30.726562 8.21875 -30.125 C 8.4375 -29.53125 8.597656 -28.859375 8.703125 -28.109375 C 8.804688 -27.367188 8.878906 -26.628906 8.921875 -25.890625 C 8.960938 -25.160156 8.984375 -24.476562 8.984375 -23.84375 C 8.984375 -23.21875 8.984375 -22.722656 8.984375 -22.359375 C 8.984375 -22.097656 8.972656 -21.710938 8.953125 -21.203125 C 8.941406 -20.703125 8.925781 -20.179688 8.90625 -19.640625 C 8.894531 -19.097656 8.890625 -18.597656 8.890625 -18.140625 C 8.890625 -17.679688 8.921875 -17.351562 8.984375 -17.15625 C 9.179688 -17.15625 9.476562 -17.347656 9.875 -17.734375 C 10.28125 -18.117188 10.75 -18.609375 11.28125 -19.203125 C 11.8125 -19.804688 12.382812 -20.445312 13 -21.125 C 13.613281 -21.800781 14.242188 -22.4375 14.890625 -23.03125 C 15.535156 -23.632812 16.171875 -24.128906 16.796875 -24.515625 C 17.429688 -24.910156 18.019531 -25.109375 18.5625 -25.109375 C 19.132812 -25.109375 19.578125 -24.90625 19.890625 -24.5 C 20.210938 -24.101562 20.375 -23.644531 20.375 -23.125 Z M 20.375 -23.125 "/></g></g><g transform="translate(244.371132, 71.076244)"><g><path d="M 19.296875 -7.65625 C 19.296875 -6.675781 18.988281 -5.71875 18.375 -4.78125 C 17.757812 -3.851562 16.984375 -3.023438 16.046875 -2.296875 C 15.117188 -1.566406 14.125 -0.976562 13.0625 -0.53125 C 12.007812 -0.09375 11.035156 0.125 10.140625 0.125 C 8.617188 0.125 7.265625 -0.253906 6.078125 -1.015625 C 4.890625 -1.773438 3.894531 -2.738281 3.09375 -3.90625 C 2.289062 -5.082031 1.679688 -6.378906 1.265625 -7.796875 C 0.847656 -9.210938 0.640625 -10.597656 0.640625 -11.953125 C 0.640625 -13.378906 0.835938 -14.910156 1.234375 -16.546875 C 1.640625 -18.179688 2.25 -19.6875 3.0625 -21.0625 C 3.882812 -22.4375 4.914062 -23.582031 6.15625 -24.5 C 7.40625 -25.414062 8.890625 -25.875 10.609375 -25.875 C 11.585938 -25.875 12.519531 -25.707031 13.40625 -25.375 C 14.300781 -25.050781 15.078125 -24.585938 15.734375 -23.984375 C 16.390625 -23.378906 16.914062 -22.660156 17.3125 -21.828125 C 17.71875 -21.003906 17.921875 -20.078125 17.921875 -19.046875 C 17.921875 -17.691406 17.632812 -16.425781 17.0625 -15.25 C 16.488281 -14.082031 15.726562 -13.066406 14.78125 -12.203125 C 13.84375 -11.347656 12.753906 -10.65625 11.515625 -10.125 C 10.285156 -9.59375 9.023438 -9.296875 7.734375 -9.234375 C 7.847656 -8.410156 8.179688 -7.8125 8.734375 -7.4375 C 9.296875 -7.0625 9.96875 -6.875 10.75 -6.875 C 11.320312 -6.875 11.878906 -7.015625 12.421875 -7.296875 C 12.960938 -7.585938 13.488281 -7.910156 14 -8.265625 C 14.519531 -8.628906 15.03125 -8.953125 15.53125 -9.234375 C 16.039062 -9.523438 16.550781 -9.671875 17.0625 -9.671875 C 17.632812 -9.671875 18.148438 -9.484375 18.609375 -9.109375 C 19.066406 -8.734375 19.296875 -8.25 19.296875 -7.65625 Z M 12.34375 -18.1875 C 12.34375 -18.550781 12.238281 -18.929688 12.03125 -19.328125 C 11.832031 -19.734375 11.519531 -19.9375 11.09375 -19.9375 C 10.457031 -19.9375 9.925781 -19.769531 9.5 -19.4375 C 9.070312 -19.113281 8.710938 -18.703125 8.421875 -18.203125 C 8.140625 -17.703125 7.914062 -17.164062 7.75 -16.59375 C 7.59375 -16.019531 7.503906 -15.488281 7.484375 -15 C 7.878906 -15.082031 8.351562 -15.195312 8.90625 -15.34375 C 9.46875 -15.488281 10 -15.679688 10.5 -15.921875 C 11.007812 -16.171875 11.441406 -16.476562 11.796875 -16.84375 C 12.160156 -17.21875 12.34375 -17.664062 12.34375 -18.1875 Z M 12.34375 -18.1875 "/></g></g><g transform="translate(264.098521, 71.076244)"><g><path d="M 11.3125 1.546875 C 9.269531 1.546875 7.679688 1.28125 6.546875 0.75 C 5.421875 0.21875 4.578125 -0.53125 4.015625 -1.5 C 3.460938 -2.476562 3.128906 -3.65625 3.015625 -5.03125 C 2.898438 -6.40625 2.84375 -7.9375 2.84375 -9.625 C 2.84375 -10.976562 2.882812 -12.332031 2.96875 -13.6875 C 3.050781 -15.050781 3.179688 -16.503906 3.359375 -18.046875 C 2.953125 -18.046875 2.632812 -18.039062 2.40625 -18.03125 C 2.175781 -18.019531 1.988281 -18.015625 1.84375 -18.015625 C 0.925781 -18.015625 0.132812 -18.210938 -0.53125 -18.609375 C -1.207031 -19.015625 -1.546875 -19.628906 -1.546875 -20.453125 C -1.546875 -20.972656 -1.351562 -21.429688 -0.96875 -21.828125 C -0.582031 -22.234375 -0.0859375 -22.578125 0.515625 -22.859375 C 1.117188 -23.148438 1.769531 -23.378906 2.46875 -23.546875 C 3.175781 -23.722656 3.84375 -23.84375 4.46875 -23.90625 C 4.46875 -24.707031 4.523438 -25.59375 4.640625 -26.5625 C 4.753906 -27.539062 4.960938 -28.453125 5.265625 -29.296875 C 5.566406 -30.140625 5.972656 -30.847656 6.484375 -31.421875 C 7.003906 -31.992188 7.664062 -32.28125 8.46875 -32.28125 C 8.925781 -32.28125 9.332031 -32.144531 9.6875 -31.875 C 10.050781 -31.601562 10.347656 -31.257812 10.578125 -30.84375 C 10.804688 -30.425781 10.976562 -29.957031 11.09375 -29.4375 C 11.207031 -28.925781 11.265625 -28.425781 11.265625 -27.9375 C 11.265625 -27.363281 11.21875 -26.773438 11.125 -26.171875 C 11.039062 -25.578125 10.882812 -24.832031 10.65625 -23.9375 C 11.144531 -24 11.472656 -24.035156 11.640625 -24.046875 C 11.816406 -24.066406 11.976562 -24.078125 12.125 -24.078125 C 12.613281 -24.078125 13.117188 -24.03125 13.640625 -23.9375 C 14.171875 -23.851562 14.660156 -23.710938 15.109375 -23.515625 C 15.554688 -23.316406 15.921875 -23.050781 16.203125 -22.71875 C 16.492188 -22.382812 16.640625 -21.988281 16.640625 -21.53125 C 16.640625 -21.019531 16.429688 -20.5625 16.015625 -20.15625 C 15.597656 -19.757812 15.070312 -19.414062 14.4375 -19.125 C 13.8125 -18.84375 13.140625 -18.617188 12.421875 -18.453125 C 11.703125 -18.296875 11.03125 -18.191406 10.40625 -18.140625 C 10.226562 -16.960938 10.101562 -15.878906 10.03125 -14.890625 C 9.957031 -13.898438 9.878906 -12.90625 9.796875 -11.90625 C 9.742188 -11.414062 9.691406 -10.921875 9.640625 -10.421875 C 9.597656 -9.921875 9.578125 -9.410156 9.578125 -8.890625 C 9.578125 -8.523438 9.59375 -8.085938 9.625 -7.578125 C 9.65625 -7.078125 9.753906 -6.597656 9.921875 -6.140625 C 10.097656 -5.679688 10.375 -5.285156 10.75 -4.953125 C 11.125 -4.628906 11.640625 -4.46875 12.296875 -4.46875 C 12.691406 -4.46875 13.101562 -4.503906 13.53125 -4.578125 C 13.96875 -4.648438 14.398438 -4.6875 14.828125 -4.6875 C 15.578125 -4.6875 16.113281 -4.425781 16.4375 -3.90625 C 16.769531 -3.394531 16.9375 -2.738281 16.9375 -1.9375 C 16.9375 -1.332031 16.753906 -0.804688 16.390625 -0.359375 C 16.035156 0.078125 15.585938 0.429688 15.046875 0.703125 C 14.503906 0.984375 13.894531 1.191406 13.21875 1.328125 C 12.539062 1.472656 11.90625 1.546875 11.3125 1.546875 Z M 11.3125 1.546875 "/></g></g><g transform="translate(280.60248, 71.076244)"><g><path d="M 13.890625 -23.640625 C 13.890625 -22.804688 13.609375 -22.1875 13.046875 -21.78125 C 12.484375 -21.382812 11.859375 -21.003906 11.171875 -20.640625 C 10.484375 -20.285156 9.859375 -19.863281 9.296875 -19.375 C 8.742188 -18.894531 8.46875 -18.164062 8.46875 -17.1875 C 8.46875 -16.675781 8.585938 -16.234375 8.828125 -15.859375 C 9.078125 -15.484375 9.378906 -15.144531 9.734375 -14.84375 C 10.085938 -14.550781 10.476562 -14.242188 10.90625 -13.921875 C 11.34375 -13.609375 11.738281 -13.25 12.09375 -12.84375 C 12.457031 -12.445312 12.757812 -11.960938 13 -11.390625 C 13.25 -10.816406 13.375 -10.113281 13.375 -9.28125 C 13.375 -8.082031 13.0625 -6.898438 12.4375 -5.734375 C 11.820312 -4.578125 11.035156 -3.546875 10.078125 -2.640625 C 9.117188 -1.742188 8.035156 -1.019531 6.828125 -0.46875 C 5.628906 0.0703125 4.441406 0.34375 3.265625 0.34375 C 2.773438 0.34375 2.285156 0.304688 1.796875 0.234375 C 1.316406 0.160156 0.878906 0.0234375 0.484375 -0.171875 C 0.0976562 -0.367188 -0.21875 -0.644531 -0.46875 -1 C -0.726562 -1.363281 -0.859375 -1.832031 -0.859375 -2.40625 C -0.859375 -3.207031 -0.695312 -3.828125 -0.375 -4.265625 C -0.0625 -4.710938 0.332031 -5.066406 0.8125 -5.328125 C 1.300781 -5.585938 1.820312 -5.785156 2.375 -5.921875 C 2.9375 -6.066406 3.460938 -6.25 3.953125 -6.46875 C 4.441406 -6.6875 4.84375 -6.96875 5.15625 -7.3125 C 5.46875 -7.65625 5.625 -8.140625 5.625 -8.765625 C 5.625 -9.367188 5.390625 -9.992188 4.921875 -10.640625 C 4.453125 -11.285156 3.929688 -11.972656 3.359375 -12.703125 C 2.785156 -13.429688 2.257812 -14.210938 1.78125 -15.046875 C 1.3125 -15.878906 1.078125 -16.796875 1.078125 -17.796875 C 1.078125 -19.023438 1.328125 -20.160156 1.828125 -21.203125 C 2.328125 -22.253906 3 -23.164062 3.84375 -23.9375 C 4.6875 -24.71875 5.648438 -25.328125 6.734375 -25.765625 C 7.828125 -26.210938 8.976562 -26.4375 10.1875 -26.4375 C 10.644531 -26.4375 11.09375 -26.390625 11.53125 -26.296875 C 11.976562 -26.210938 12.375 -26.0625 12.71875 -25.84375 C 13.0625 -25.632812 13.34375 -25.347656 13.5625 -24.984375 C 13.78125 -24.628906 13.890625 -24.179688 13.890625 -23.640625 Z M 13.890625 -23.640625 "/></g></g></g></svg>