<svg xmlns="http://www.w3.org/2000/svg" xmlns:xlink="http://www.w3.org/1999/xlink" width="450" zoomAndPan="magnify" viewBox="0 0 337.5 337.500003" height="450" preserveAspectRatio="xMidYMid meet" version="1.0"><defs><g/></defs><path fill="#fff9e6" d="M 33.253906 128.269531 L 309.011719 128.269531 C 320.324219 128.269531 329.496094 137.449219 329.496094 148.765625 L 329.496094 189.761719 C 329.496094 201.082031 320.324219 210.257812 309.011719 210.257812 L 33.253906 210.257812 C 21.941406 210.257812 12.769531 201.082031 12.769531 189.761719 L 12.769531 148.765625 C 12.769531 137.449219 21.941406 128.269531 33.253906 128.269531 " fill-opacity="1" fill-rule="nonzero"/><g fill="#ffc600" fill-opacity="1"><g transform="translate(32.268593, 185.697589)"><g><path d="M 25.953125 -21.4375 C 25.953125 -18.632812 25.378906 -15.941406 24.234375 -13.359375 C 23.097656 -10.773438 21.566406 -8.476562 19.640625 -6.46875 C 17.722656 -4.46875 15.484375 -2.875 12.921875 -1.6875 C 10.367188 -0.5 7.679688 0.09375 4.859375 0.09375 L 4.765625 0.09375 C 4.191406 0.09375 3.722656 -0.164062 3.359375 -0.6875 C 2.992188 -1.207031 2.679688 -1.863281 2.421875 -2.65625 C 2.171875 -3.457031 1.984375 -4.347656 1.859375 -5.328125 C 1.734375 -6.316406 1.632812 -7.28125 1.5625 -8.21875 C 1.5 -9.15625 1.46875 -9.992188 1.46875 -10.734375 C 1.46875 -11.484375 1.46875 -12.046875 1.46875 -12.421875 C 1.46875 -13.503906 1.484375 -14.578125 1.515625 -15.640625 C 1.554688 -16.703125 1.609375 -17.773438 1.671875 -18.859375 C 1.671875 -19.203125 1.691406 -19.71875 1.734375 -20.40625 C 1.785156 -21.09375 1.84375 -21.863281 1.90625 -22.71875 C 1.96875 -23.570312 2.046875 -24.46875 2.140625 -25.40625 C 2.234375 -26.34375 2.335938 -27.210938 2.453125 -28.015625 C 2.566406 -28.828125 2.675781 -29.539062 2.78125 -30.15625 C 2.894531 -30.78125 3.03125 -31.207031 3.1875 -31.4375 C 3.601562 -32.132812 4.238281 -32.75 5.09375 -33.28125 C 5.945312 -33.820312 6.875 -34.265625 7.875 -34.609375 C 8.875 -34.960938 9.890625 -35.226562 10.921875 -35.40625 C 11.960938 -35.582031 12.863281 -35.671875 13.625 -35.671875 C 15.71875 -35.671875 17.53125 -35.28125 19.0625 -34.5 C 20.601562 -33.71875 21.890625 -32.671875 22.921875 -31.359375 C 23.960938 -30.046875 24.726562 -28.53125 25.21875 -26.8125 C 25.707031 -25.09375 25.953125 -23.300781 25.953125 -21.4375 Z M 17.953125 -20.046875 C 17.953125 -20.742188 17.820312 -21.457031 17.5625 -22.1875 C 17.3125 -22.914062 16.957031 -23.582031 16.5 -24.1875 C 16.039062 -24.789062 15.484375 -25.273438 14.828125 -25.640625 C 14.179688 -26.003906 13.460938 -26.1875 12.671875 -26.1875 C 12.003906 -26.1875 11.320312 -26.03125 10.625 -25.71875 C 10.457031 -25.625 10.3125 -25.328125 10.1875 -24.828125 C 10.0625 -24.335938 9.957031 -23.742188 9.875 -23.046875 C 9.800781 -22.347656 9.734375 -21.585938 9.671875 -20.765625 C 9.609375 -19.941406 9.566406 -19.15625 9.546875 -18.40625 C 9.535156 -17.65625 9.519531 -16.992188 9.5 -16.421875 C 9.488281 -15.859375 9.484375 -15.476562 9.484375 -15.28125 C 9.484375 -14.96875 9.484375 -14.5 9.484375 -13.875 C 9.484375 -13.257812 9.503906 -12.648438 9.546875 -12.046875 C 9.597656 -11.441406 9.65625 -10.914062 9.71875 -10.46875 C 9.78125 -10.03125 9.890625 -9.8125 10.046875 -9.8125 C 11.003906 -9.8125 11.945312 -10.179688 12.875 -10.921875 C 13.8125 -11.671875 14.660156 -12.582031 15.421875 -13.65625 C 16.191406 -14.738281 16.804688 -15.867188 17.265625 -17.046875 C 17.722656 -18.222656 17.953125 -19.222656 17.953125 -20.046875 Z M 17.953125 -20.046875 "/></g></g><g transform="translate(58.933559, 185.697589)"><g><path d="M 10.484375 1.375 C 8.859375 1.375 7.441406 0.945312 6.234375 0.09375 C 5.023438 -0.757812 4.007812 -1.851562 3.1875 -3.1875 C 2.363281 -4.519531 1.742188 -6.003906 1.328125 -7.640625 C 0.921875 -9.273438 0.71875 -10.890625 0.71875 -12.484375 C 0.71875 -14.160156 0.921875 -15.894531 1.328125 -17.6875 C 1.742188 -19.476562 2.378906 -21.113281 3.234375 -22.59375 C 4.097656 -24.070312 5.195312 -25.28125 6.53125 -26.21875 C 7.863281 -27.15625 9.445312 -27.625 11.28125 -27.625 C 13.0625 -27.625 14.578125 -27.140625 15.828125 -26.171875 C 17.085938 -25.203125 18.097656 -23.992188 18.859375 -22.546875 C 19.617188 -21.097656 20.15625 -19.515625 20.46875 -17.796875 C 20.789062 -16.085938 20.90625 -14.472656 20.8125 -12.953125 C 20.71875 -11.265625 20.453125 -9.5625 20.015625 -7.84375 C 19.585938 -6.132812 18.960938 -4.597656 18.140625 -3.234375 C 17.316406 -1.867188 16.269531 -0.757812 15 0.09375 C 13.726562 0.945312 12.222656 1.375 10.484375 1.375 Z M 10.953125 -20.140625 C 10.472656 -20.140625 10.050781 -19.882812 9.6875 -19.375 C 9.320312 -18.875 9.019531 -18.257812 8.78125 -17.53125 C 8.539062 -16.800781 8.359375 -16.03125 8.234375 -15.21875 C 8.109375 -14.40625 8.046875 -13.695312 8.046875 -13.09375 C 8.046875 -12.332031 8.117188 -11.503906 8.265625 -10.609375 C 8.410156 -9.722656 8.609375 -8.90625 8.859375 -8.15625 C 9.109375 -7.414062 9.414062 -6.800781 9.78125 -6.3125 C 10.144531 -5.820312 10.566406 -5.578125 11.046875 -5.578125 C 11.554688 -5.578125 11.992188 -5.8125 12.359375 -6.28125 C 12.722656 -6.757812 13.015625 -7.363281 13.234375 -8.09375 C 13.460938 -8.820312 13.625 -9.625 13.71875 -10.5 C 13.8125 -11.375 13.859375 -12.191406 13.859375 -12.953125 C 13.859375 -13.648438 13.796875 -14.421875 13.671875 -15.265625 C 13.546875 -16.109375 13.363281 -16.894531 13.125 -17.625 C 12.882812 -18.351562 12.582031 -18.953125 12.21875 -19.421875 C 11.851562 -19.898438 11.429688 -20.140625 10.953125 -20.140625 Z M 10.953125 -20.140625 "/></g></g><g transform="translate(80.741692, 185.697589)"><g><path d="M 22.28125 -13.625 C 22.28125 -11.875 22.101562 -10.140625 21.75 -8.421875 C 21.40625 -6.710938 20.820312 -5.179688 20 -3.828125 C 19.175781 -2.484375 18.070312 -1.394531 16.6875 -0.5625 C 15.3125 0.257812 13.59375 0.671875 11.53125 0.671875 C 9.5 0.671875 7.796875 0.265625 6.421875 -0.546875 C 5.054688 -1.359375 3.96875 -2.429688 3.15625 -3.765625 C 2.351562 -5.097656 1.785156 -6.601562 1.453125 -8.28125 C 1.117188 -9.96875 0.953125 -11.679688 0.953125 -13.421875 C 0.953125 -15.328125 1.175781 -17.21875 1.625 -19.09375 C 1.71875 -19.601562 1.898438 -20.3125 2.171875 -21.21875 C 2.441406 -22.125 2.789062 -23.007812 3.21875 -23.875 C 3.644531 -24.75 4.132812 -25.503906 4.6875 -26.140625 C 5.25 -26.773438 5.863281 -27.09375 6.53125 -27.09375 C 7.164062 -27.09375 7.671875 -26.914062 8.046875 -26.5625 C 8.429688 -26.21875 8.734375 -25.785156 8.953125 -25.265625 C 9.171875 -24.742188 9.3125 -24.1875 9.375 -23.59375 C 9.445312 -23.007812 9.484375 -22.476562 9.484375 -22 C 9.484375 -21.269531 9.425781 -20.554688 9.3125 -19.859375 C 9.195312 -19.160156 9.078125 -18.460938 8.953125 -17.765625 C 8.828125 -16.804688 8.707031 -15.851562 8.59375 -14.90625 C 8.476562 -13.957031 8.421875 -13.003906 8.421875 -12.046875 C 8.421875 -11.566406 8.445312 -11.035156 8.5 -10.453125 C 8.550781 -9.867188 8.671875 -9.304688 8.859375 -8.765625 C 9.046875 -8.222656 9.3125 -7.769531 9.65625 -7.40625 C 10.007812 -7.039062 10.503906 -6.859375 11.140625 -6.859375 C 11.960938 -6.859375 12.617188 -7.078125 13.109375 -7.515625 C 13.609375 -7.960938 13.976562 -8.519531 14.21875 -9.1875 C 14.457031 -9.851562 14.609375 -10.566406 14.671875 -11.328125 C 14.734375 -12.097656 14.765625 -12.796875 14.765625 -13.421875 C 14.765625 -14.828125 14.664062 -16.203125 14.46875 -17.546875 C 14.28125 -18.898438 14.109375 -20.273438 13.953125 -21.671875 C 13.921875 -21.828125 13.90625 -22.046875 13.90625 -22.328125 C 13.90625 -22.804688 13.984375 -23.285156 14.140625 -23.765625 C 14.296875 -24.242188 14.515625 -24.671875 14.796875 -25.046875 C 15.085938 -25.429688 15.441406 -25.738281 15.859375 -25.96875 C 16.273438 -26.207031 16.734375 -26.328125 17.234375 -26.328125 C 17.929688 -26.328125 18.550781 -26.082031 19.09375 -25.59375 C 19.632812 -25.101562 20.085938 -24.46875 20.453125 -23.6875 C 20.816406 -22.914062 21.117188 -22.046875 21.359375 -21.078125 C 21.597656 -20.109375 21.785156 -19.15625 21.921875 -18.21875 C 22.066406 -17.28125 22.160156 -16.394531 22.203125 -15.5625 C 22.253906 -14.738281 22.28125 -14.09375 22.28125 -13.625 Z M 22.28125 -13.625 "/></g></g><g transform="translate(104.502081, 185.697589)"><g><path d="M 23.953125 -15.71875 C 23.953125 -14.789062 23.878906 -13.75 23.734375 -12.59375 C 23.597656 -11.4375 23.378906 -10.253906 23.078125 -9.046875 C 22.773438 -7.835938 22.375 -6.660156 21.875 -5.515625 C 21.382812 -4.378906 20.78125 -3.359375 20.0625 -2.453125 C 19.351562 -1.546875 18.53125 -0.820312 17.59375 -0.28125 C 16.65625 0.257812 15.566406 0.53125 14.328125 0.53125 C 13.023438 0.53125 11.84375 0.226562 10.78125 -0.375 C 9.71875 -0.976562 8.804688 -1.804688 8.046875 -2.859375 C 7.953125 -2.003906 7.601562 -1.25 7 -0.59375 C 6.394531 0.0507812 5.632812 0.375 4.71875 0.375 C 4.175781 0.375 3.722656 0.109375 3.359375 -0.421875 C 2.992188 -0.960938 2.695312 -1.65625 2.46875 -2.5 C 2.25 -3.34375 2.082031 -4.269531 1.96875 -5.28125 C 1.863281 -6.300781 1.796875 -7.285156 1.765625 -8.234375 C 1.734375 -9.191406 1.71875 -10.050781 1.71875 -10.8125 C 1.71875 -11.570312 1.71875 -12.109375 1.71875 -12.421875 C 1.71875 -13.503906 1.722656 -14.582031 1.734375 -15.65625 C 1.753906 -16.738281 1.78125 -17.835938 1.8125 -18.953125 C 1.8125 -19.492188 1.800781 -20.300781 1.78125 -21.375 C 1.769531 -22.457031 1.78125 -23.65625 1.8125 -24.96875 C 1.84375 -26.289062 1.910156 -27.640625 2.015625 -29.015625 C 2.128906 -30.398438 2.328125 -31.664062 2.609375 -32.8125 C 2.898438 -33.957031 3.300781 -34.894531 3.8125 -35.625 C 4.320312 -36.351562 4.972656 -36.734375 5.765625 -36.765625 C 6.398438 -36.765625 6.9375 -36.539062 7.375 -36.09375 C 7.820312 -35.65625 8.195312 -35.066406 8.5 -34.328125 C 8.800781 -33.597656 9.039062 -32.78125 9.21875 -31.875 C 9.394531 -30.976562 9.519531 -30.078125 9.59375 -29.171875 C 9.675781 -28.265625 9.722656 -27.40625 9.734375 -26.59375 C 9.753906 -25.789062 9.765625 -25.132812 9.765625 -24.625 C 9.765625 -24.53125 9.753906 -24.316406 9.734375 -23.984375 C 9.722656 -23.648438 9.71875 -23.289062 9.71875 -22.90625 C 9.71875 -22.519531 9.71875 -22.175781 9.71875 -21.875 C 9.71875 -21.582031 9.71875 -21.414062 9.71875 -21.375 C 10 -21.976562 10.410156 -22.566406 10.953125 -23.140625 C 11.492188 -23.710938 12.097656 -24.21875 12.765625 -24.65625 C 13.429688 -25.101562 14.128906 -25.46875 14.859375 -25.75 C 15.585938 -26.039062 16.285156 -26.1875 16.953125 -26.1875 C 18.285156 -26.1875 19.40625 -25.84375 20.3125 -25.15625 C 21.21875 -24.476562 21.9375 -23.613281 22.46875 -22.5625 C 23.007812 -21.519531 23.390625 -20.382812 23.609375 -19.15625 C 23.835938 -17.9375 23.953125 -16.789062 23.953125 -15.71875 Z M 16.953125 -14.28125 C 16.953125 -14.664062 16.925781 -15.078125 16.875 -15.515625 C 16.832031 -15.960938 16.722656 -16.375 16.546875 -16.75 C 16.367188 -17.132812 16.128906 -17.453125 15.828125 -17.703125 C 15.523438 -17.960938 15.140625 -18.09375 14.671875 -18.09375 C 14.160156 -18.09375 13.65625 -17.984375 13.15625 -17.765625 C 12.664062 -17.546875 12.195312 -17.257812 11.75 -16.90625 C 11.3125 -16.550781 10.898438 -16.175781 10.515625 -15.78125 C 10.140625 -15.382812 9.8125 -15 9.53125 -14.625 L 9.046875 -10.375 C 9.554688 -9.644531 10.175781 -9.066406 10.90625 -8.640625 C 11.632812 -8.210938 12.457031 -8 13.375 -8 C 14.070312 -8 14.648438 -8.21875 15.109375 -8.65625 C 15.578125 -9.101562 15.945312 -9.648438 16.21875 -10.296875 C 16.488281 -10.953125 16.675781 -11.644531 16.78125 -12.375 C 16.894531 -13.113281 16.953125 -13.75 16.953125 -14.28125 Z M 16.953125 -14.28125 "/></g></g><g transform="translate(129.929031, 185.697589)"><g><path d="M 10.328125 -28.859375 C 10.328125 -27.140625 10.253906 -25.414062 10.109375 -23.6875 C 9.972656 -21.957031 9.90625 -20.222656 9.90625 -18.484375 C 9.90625 -16.222656 9.972656 -13.960938 10.109375 -11.703125 C 10.253906 -9.453125 10.328125 -7.1875 10.328125 -4.90625 C 10.328125 -4.332031 10.296875 -3.6875 10.234375 -2.96875 C 10.171875 -2.257812 10.019531 -1.601562 9.78125 -1 C 9.539062 -0.394531 9.179688 0.109375 8.703125 0.515625 C 8.234375 0.929688 7.601562 1.140625 6.8125 1.140625 C 6.050781 1.140625 5.390625 0.765625 4.828125 0.015625 C 4.273438 -0.722656 3.816406 -1.671875 3.453125 -2.828125 C 3.085938 -3.992188 2.785156 -5.289062 2.546875 -6.71875 C 2.304688 -8.144531 2.128906 -9.53125 2.015625 -10.875 C 1.910156 -12.226562 1.832031 -13.46875 1.78125 -14.59375 C 1.738281 -15.71875 1.71875 -16.550781 1.71875 -17.09375 C 1.71875 -17.695312 1.738281 -18.570312 1.78125 -19.71875 C 1.832031 -20.863281 1.9375 -22.101562 2.09375 -23.4375 C 2.25 -24.769531 2.460938 -26.125 2.734375 -27.5 C 3.003906 -28.882812 3.359375 -30.140625 3.796875 -31.265625 C 4.242188 -32.390625 4.773438 -33.304688 5.390625 -34.015625 C 6.015625 -34.734375 6.757812 -35.09375 7.625 -35.09375 C 8.320312 -35.09375 8.851562 -34.863281 9.21875 -34.40625 C 9.582031 -33.945312 9.84375 -33.390625 10 -32.734375 C 10.15625 -32.085938 10.25 -31.40625 10.28125 -30.6875 C 10.3125 -29.976562 10.328125 -29.367188 10.328125 -28.859375 Z M 10.328125 -28.859375 "/></g></g><g transform="translate(142.452042, 185.697589)"><g><path d="M 21.375 -8.484375 C 21.375 -7.398438 21.03125 -6.34375 20.34375 -5.3125 C 19.664062 -4.28125 18.8125 -3.359375 17.78125 -2.546875 C 16.75 -1.734375 15.644531 -1.082031 14.46875 -0.59375 C 13.300781 -0.101562 12.222656 0.140625 11.234375 0.140625 C 9.554688 0.140625 8.054688 -0.273438 6.734375 -1.109375 C 5.421875 -1.953125 4.316406 -3.023438 3.421875 -4.328125 C 2.535156 -5.628906 1.863281 -7.066406 1.40625 -8.640625 C 0.945312 -10.210938 0.71875 -11.742188 0.71875 -13.234375 C 0.71875 -14.828125 0.9375 -16.523438 1.375 -18.328125 C 1.820312 -20.140625 2.5 -21.804688 3.40625 -23.328125 C 4.3125 -24.859375 5.453125 -26.128906 6.828125 -27.140625 C 8.210938 -28.160156 9.859375 -28.671875 11.765625 -28.671875 C 12.835938 -28.671875 13.863281 -28.488281 14.84375 -28.125 C 15.832031 -27.757812 16.691406 -27.242188 17.421875 -26.578125 C 18.160156 -25.910156 18.75 -25.113281 19.1875 -24.1875 C 19.632812 -23.269531 19.859375 -22.238281 19.859375 -21.09375 C 19.859375 -19.601562 19.539062 -18.207031 18.90625 -16.90625 C 18.269531 -15.601562 17.425781 -14.472656 16.375 -13.515625 C 15.332031 -12.566406 14.128906 -11.796875 12.765625 -11.203125 C 11.398438 -10.617188 10.003906 -10.296875 8.578125 -10.234375 C 8.703125 -9.316406 9.070312 -8.648438 9.6875 -8.234375 C 10.3125 -7.828125 11.050781 -7.625 11.90625 -7.625 C 12.539062 -7.625 13.160156 -7.78125 13.765625 -8.09375 C 14.367188 -8.414062 14.953125 -8.773438 15.515625 -9.171875 C 16.085938 -9.566406 16.648438 -9.921875 17.203125 -10.234375 C 17.765625 -10.554688 18.332031 -10.71875 18.90625 -10.71875 C 19.539062 -10.71875 20.109375 -10.507812 20.609375 -10.09375 C 21.117188 -9.6875 21.375 -9.148438 21.375 -8.484375 Z M 13.671875 -20.140625 C 13.671875 -20.554688 13.554688 -20.984375 13.328125 -21.421875 C 13.109375 -21.867188 12.757812 -22.09375 12.28125 -22.09375 C 11.582031 -22.09375 10.992188 -21.910156 10.515625 -21.546875 C 10.046875 -21.179688 9.648438 -20.71875 9.328125 -20.15625 C 9.015625 -19.601562 8.769531 -19.007812 8.59375 -18.375 C 8.414062 -17.75 8.3125 -17.164062 8.28125 -16.625 C 8.726562 -16.71875 9.257812 -16.84375 9.875 -17 C 10.5 -17.15625 11.085938 -17.367188 11.640625 -17.640625 C 12.203125 -17.910156 12.679688 -18.25 13.078125 -18.65625 C 13.472656 -19.070312 13.671875 -19.566406 13.671875 -20.140625 Z M 13.671875 -20.140625 "/></g></g></g><g fill="#5047ed" fill-opacity="1"><g transform="translate(164.306732, 185.697589)"><g><path d="M 24.671875 -25.046875 C 24.671875 -22.859375 24.160156 -20.890625 23.140625 -19.140625 C 22.128906 -17.398438 20.78125 -15.863281 19.09375 -14.53125 C 19.601562 -13.757812 20.128906 -12.863281 20.671875 -11.84375 C 21.210938 -10.832031 21.695312 -9.765625 22.125 -8.640625 C 22.550781 -7.515625 22.898438 -6.390625 23.171875 -5.265625 C 23.441406 -4.140625 23.578125 -3.097656 23.578125 -2.140625 C 23.578125 -1.128906 23.328125 -0.21875 22.828125 0.59375 C 22.335938 1.40625 21.503906 1.8125 20.328125 1.8125 C 19.347656 1.8125 18.5 1.332031 17.78125 0.375 C 17.070312 -0.570312 16.4375 -1.703125 15.875 -3.015625 C 15.320312 -4.335938 14.816406 -5.679688 14.359375 -7.046875 C 13.898438 -8.410156 13.460938 -9.503906 13.046875 -10.328125 C 12.472656 -10.140625 11.914062 -9.925781 11.375 -9.6875 C 10.84375 -9.445312 10.289062 -9.21875 9.71875 -9 C 9.6875 -8.300781 9.628906 -7.335938 9.546875 -6.109375 C 9.460938 -4.890625 9.285156 -3.675781 9.015625 -2.46875 C 8.753906 -1.269531 8.351562 -0.226562 7.8125 0.65625 C 7.269531 1.550781 6.523438 2 5.578125 2 C 4.523438 2 3.710938 1.566406 3.140625 0.703125 C 2.566406 -0.148438 2.160156 -1.160156 1.921875 -2.328125 C 1.691406 -3.503906 1.554688 -4.703125 1.515625 -5.921875 C 1.484375 -7.148438 1.46875 -8.113281 1.46875 -8.8125 C 1.46875 -10.300781 1.5 -11.765625 1.5625 -13.203125 C 1.632812 -14.648438 1.671875 -16.125 1.671875 -17.625 C 1.671875 -18.988281 1.644531 -20.351562 1.59375 -21.71875 C 1.550781 -23.082031 1.53125 -24.460938 1.53125 -25.859375 C 1.53125 -26.171875 1.53125 -26.570312 1.53125 -27.0625 C 1.53125 -27.5625 1.550781 -28.070312 1.59375 -28.59375 C 1.644531 -29.125 1.703125 -29.625 1.765625 -30.09375 C 1.828125 -30.570312 1.9375 -30.953125 2.09375 -31.234375 C 2.414062 -31.898438 3.140625 -32.535156 4.265625 -33.140625 C 5.390625 -33.742188 6.625 -34.273438 7.96875 -34.734375 C 9.320312 -35.203125 10.640625 -35.566406 11.921875 -35.828125 C 13.210938 -36.097656 14.175781 -36.234375 14.8125 -36.234375 C 16.425781 -36.234375 17.851562 -35.929688 19.09375 -35.328125 C 20.332031 -34.734375 21.363281 -33.914062 22.1875 -32.875 C 23.019531 -31.84375 23.640625 -30.648438 24.046875 -29.296875 C 24.460938 -27.953125 24.671875 -26.535156 24.671875 -25.046875 Z M 15.859375 -24.390625 C 15.859375 -25.210938 15.664062 -25.835938 15.28125 -26.265625 C 14.90625 -26.691406 14.285156 -26.90625 13.421875 -26.90625 C 12.796875 -26.90625 12.15625 -26.789062 11.5 -26.5625 C 10.851562 -26.34375 10.257812 -26.09375 9.71875 -25.8125 C 9.84375 -23.300781 9.890625 -20.804688 9.859375 -18.328125 C 10.523438 -18.554688 11.207031 -18.84375 11.90625 -19.1875 C 12.601562 -19.539062 13.242188 -19.96875 13.828125 -20.46875 C 14.421875 -20.976562 14.90625 -21.550781 15.28125 -22.1875 C 15.664062 -22.820312 15.859375 -23.554688 15.859375 -24.390625 Z M 15.859375 -24.390625 "/></g></g><g transform="translate(189.209906, 185.697589)"><g><path d="M 10.484375 1.375 C 8.859375 1.375 7.441406 0.945312 6.234375 0.09375 C 5.023438 -0.757812 4.007812 -1.851562 3.1875 -3.1875 C 2.363281 -4.519531 1.742188 -6.003906 1.328125 -7.640625 C 0.921875 -9.273438 0.71875 -10.890625 0.71875 -12.484375 C 0.71875 -14.160156 0.921875 -15.894531 1.328125 -17.6875 C 1.742188 -19.476562 2.378906 -21.113281 3.234375 -22.59375 C 4.097656 -24.070312 5.195312 -25.28125 6.53125 -26.21875 C 7.863281 -27.15625 9.445312 -27.625 11.28125 -27.625 C 13.0625 -27.625 14.578125 -27.140625 15.828125 -26.171875 C 17.085938 -25.203125 18.097656 -23.992188 18.859375 -22.546875 C 19.617188 -21.097656 20.15625 -19.515625 20.46875 -17.796875 C 20.789062 -16.085938 20.90625 -14.472656 20.8125 -12.953125 C 20.71875 -11.265625 20.453125 -9.5625 20.015625 -7.84375 C 19.585938 -6.132812 18.960938 -4.597656 18.140625 -3.234375 C 17.316406 -1.867188 16.269531 -0.757812 15 0.09375 C 13.726562 0.945312 12.222656 1.375 10.484375 1.375 Z M 10.953125 -20.140625 C 10.472656 -20.140625 10.050781 -19.882812 9.6875 -19.375 C 9.320312 -18.875 9.019531 -18.257812 8.78125 -17.53125 C 8.539062 -16.800781 8.359375 -16.03125 8.234375 -15.21875 C 8.109375 -14.40625 8.046875 -13.695312 8.046875 -13.09375 C 8.046875 -12.332031 8.117188 -11.503906 8.265625 -10.609375 C 8.410156 -9.722656 8.609375 -8.90625 8.859375 -8.15625 C 9.109375 -7.414062 9.414062 -6.800781 9.78125 -6.3125 C 10.144531 -5.820312 10.566406 -5.578125 11.046875 -5.578125 C 11.554688 -5.578125 11.992188 -5.8125 12.359375 -6.28125 C 12.722656 -6.757812 13.015625 -7.363281 13.234375 -8.09375 C 13.460938 -8.820312 13.625 -9.625 13.71875 -10.5 C 13.8125 -11.375 13.859375 -12.191406 13.859375 -12.953125 C 13.859375 -13.648438 13.796875 -14.421875 13.671875 -15.265625 C 13.546875 -16.109375 13.363281 -16.894531 13.125 -17.625 C 12.882812 -18.351562 12.582031 -18.953125 12.21875 -19.421875 C 11.851562 -19.898438 11.429688 -20.140625 10.953125 -20.140625 Z M 10.953125 -20.140625 "/></g></g><g transform="translate(211.018039, 185.697589)"><g><path d="M 19.09375 -18.28125 C 19.09375 -18.125 19.078125 -17.957031 19.046875 -17.78125 C 19.015625 -17.613281 18.96875 -17.445312 18.90625 -17.28125 C 18.625 -16.550781 18.179688 -15.941406 17.578125 -15.453125 C 16.972656 -14.960938 16.257812 -14.71875 15.4375 -14.71875 C 14.195312 -14.71875 13.351562 -15.335938 12.90625 -16.578125 C 12.84375 -16.734375 12.8125 -16.914062 12.8125 -17.125 C 12.8125 -17.332031 12.796875 -17.546875 12.765625 -17.765625 L 12.765625 -19.140625 C 12.703125 -19.585938 12.585938 -19.9375 12.421875 -20.1875 C 12.265625 -20.445312 12 -20.578125 11.625 -20.578125 C 11.082031 -20.578125 10.5625 -20.234375 10.0625 -19.546875 C 9.570312 -18.867188 9.144531 -18.0625 8.78125 -17.125 C 8.414062 -16.1875 8.125 -15.222656 7.90625 -14.234375 C 7.6875 -13.253906 7.578125 -12.460938 7.578125 -11.859375 C 7.578125 -11.378906 7.609375 -10.796875 7.671875 -10.109375 C 7.734375 -9.429688 7.859375 -8.773438 8.046875 -8.140625 C 8.234375 -7.503906 8.492188 -6.957031 8.828125 -6.5 C 9.160156 -6.039062 9.597656 -5.8125 10.140625 -5.8125 C 10.679688 -5.8125 11.179688 -5.976562 11.640625 -6.3125 C 12.097656 -6.644531 12.550781 -7.035156 13 -7.484375 C 13.414062 -7.859375 13.867188 -8.25 14.359375 -8.65625 C 14.847656 -9.070312 15.410156 -9.28125 16.046875 -9.28125 C 16.835938 -9.28125 17.460938 -8.992188 17.921875 -8.421875 C 18.390625 -7.859375 18.625 -7.210938 18.625 -6.484375 C 18.625 -5.398438 18.335938 -4.390625 17.765625 -3.453125 C 17.191406 -2.515625 16.472656 -1.703125 15.609375 -1.015625 C 14.753906 -0.335938 13.800781 0.195312 12.75 0.59375 C 11.707031 0.988281 10.710938 1.1875 9.765625 1.1875 C 8.046875 1.1875 6.59375 0.757812 5.40625 -0.09375 C 4.21875 -0.945312 3.253906 -2.03125 2.515625 -3.34375 C 1.785156 -4.664062 1.257812 -6.101562 0.9375 -7.65625 C 0.625 -9.21875 0.46875 -10.695312 0.46875 -12.09375 C 0.46875 -13.71875 0.691406 -15.472656 1.140625 -17.359375 C 1.585938 -19.242188 2.269531 -20.992188 3.1875 -22.609375 C 4.113281 -24.234375 5.296875 -25.582031 6.734375 -26.65625 C 8.179688 -27.738281 9.90625 -28.28125 11.90625 -28.28125 C 13.144531 -28.28125 14.21875 -28.007812 15.125 -27.46875 C 16.03125 -26.9375 16.773438 -26.234375 17.359375 -25.359375 C 17.941406 -24.484375 18.382812 -23.503906 18.6875 -22.421875 C 18.988281 -21.347656 19.140625 -20.285156 19.140625 -19.234375 C 19.140625 -19.078125 19.140625 -18.921875 19.140625 -18.765625 C 19.140625 -18.609375 19.125 -18.445312 19.09375 -18.28125 Z M 19.09375 -18.28125 "/></g></g><g transform="translate(231.350075, 185.697589)"><g><path d="M 22.578125 -25.625 C 22.578125 -24.726562 22.34375 -23.820312 21.875 -22.90625 C 21.414062 -21.988281 20.859375 -21.078125 20.203125 -20.171875 C 19.554688 -19.265625 18.875 -18.40625 18.15625 -17.59375 C 17.445312 -16.78125 16.820312 -16.039062 16.28125 -15.375 C 16.726562 -14.675781 17.285156 -13.75 17.953125 -12.59375 C 18.617188 -11.4375 19.253906 -10.207031 19.859375 -8.90625 C 20.460938 -7.601562 20.976562 -6.332031 21.40625 -5.09375 C 21.832031 -3.851562 22.046875 -2.820312 22.046875 -2 C 22.046875 -1.332031 21.835938 -0.71875 21.421875 -0.15625 C 21.015625 0.394531 20.445312 0.671875 19.71875 0.671875 C 19.175781 0.671875 18.625 0.441406 18.0625 -0.015625 C 17.507812 -0.484375 16.957031 -1.085938 16.40625 -1.828125 C 15.851562 -2.578125 15.320312 -3.410156 14.8125 -4.328125 C 14.300781 -5.253906 13.832031 -6.160156 13.40625 -7.046875 C 12.976562 -7.929688 12.597656 -8.765625 12.265625 -9.546875 C 11.929688 -10.328125 11.671875 -10.953125 11.484375 -11.421875 C 11.066406 -11.015625 10.628906 -10.675781 10.171875 -10.40625 C 9.710938 -10.132812 9.257812 -9.828125 8.8125 -9.484375 C 8.8125 -8.816406 8.785156 -7.878906 8.734375 -6.671875 C 8.691406 -5.460938 8.550781 -4.269531 8.3125 -3.09375 C 8.070312 -1.914062 7.679688 -0.890625 7.140625 -0.015625 C 6.597656 0.847656 5.804688 1.28125 4.765625 1.28125 C 3.941406 1.28125 3.304688 0.90625 2.859375 0.15625 C 2.410156 -0.582031 2.082031 -1.453125 1.875 -2.453125 C 1.675781 -3.453125 1.554688 -4.46875 1.515625 -5.5 C 1.484375 -6.53125 1.46875 -7.316406 1.46875 -7.859375 C 1.46875 -10.203125 1.53125 -12.550781 1.65625 -14.90625 C 1.789062 -17.257812 1.875 -19.609375 1.90625 -21.953125 C 1.90625 -22.492188 1.910156 -23.203125 1.921875 -24.078125 C 1.941406 -24.953125 2 -25.894531 2.09375 -26.90625 C 2.1875 -27.925781 2.328125 -28.957031 2.515625 -30 C 2.710938 -31.050781 2.984375 -31.992188 3.328125 -32.828125 C 3.679688 -33.671875 4.132812 -34.351562 4.6875 -34.875 C 5.25 -35.40625 5.925781 -35.671875 6.71875 -35.671875 C 7.289062 -35.671875 7.773438 -35.457031 8.171875 -35.03125 C 8.566406 -34.601562 8.882812 -34.054688 9.125 -33.390625 C 9.363281 -32.722656 9.535156 -31.972656 9.640625 -31.140625 C 9.753906 -30.316406 9.832031 -29.5 9.875 -28.6875 C 9.925781 -27.882812 9.953125 -27.132812 9.953125 -26.4375 C 9.953125 -25.738281 9.953125 -25.179688 9.953125 -24.765625 C 9.953125 -24.472656 9.941406 -24.050781 9.921875 -23.5 C 9.910156 -22.945312 9.894531 -22.367188 9.875 -21.765625 C 9.863281 -21.160156 9.859375 -20.601562 9.859375 -20.09375 C 9.859375 -19.582031 9.890625 -19.21875 9.953125 -19 C 10.171875 -19 10.503906 -19.210938 10.953125 -19.640625 C 11.398438 -20.066406 11.914062 -20.613281 12.5 -21.28125 C 13.082031 -21.945312 13.71875 -22.65625 14.40625 -23.40625 C 15.09375 -24.15625 15.789062 -24.863281 16.5 -25.53125 C 17.21875 -26.195312 17.925781 -26.742188 18.625 -27.171875 C 19.320312 -27.597656 19.972656 -27.8125 20.578125 -27.8125 C 21.210938 -27.8125 21.703125 -27.585938 22.046875 -27.140625 C 22.398438 -26.703125 22.578125 -26.195312 22.578125 -25.625 Z M 22.578125 -25.625 "/></g></g><g transform="translate(254.158145, 185.697589)"><g><path d="M 21.375 -8.484375 C 21.375 -7.398438 21.03125 -6.34375 20.34375 -5.3125 C 19.664062 -4.28125 18.8125 -3.359375 17.78125 -2.546875 C 16.75 -1.734375 15.644531 -1.082031 14.46875 -0.59375 C 13.300781 -0.101562 12.222656 0.140625 11.234375 0.140625 C 9.554688 0.140625 8.054688 -0.273438 6.734375 -1.109375 C 5.421875 -1.953125 4.316406 -3.023438 3.421875 -4.328125 C 2.535156 -5.628906 1.863281 -7.066406 1.40625 -8.640625 C 0.945312 -10.210938 0.71875 -11.742188 0.71875 -13.234375 C 0.71875 -14.828125 0.9375 -16.523438 1.375 -18.328125 C 1.820312 -20.140625 2.5 -21.804688 3.40625 -23.328125 C 4.3125 -24.859375 5.453125 -26.128906 6.828125 -27.140625 C 8.210938 -28.160156 9.859375 -28.671875 11.765625 -28.671875 C 12.835938 -28.671875 13.863281 -28.488281 14.84375 -28.125 C 15.832031 -27.757812 16.691406 -27.242188 17.421875 -26.578125 C 18.160156 -25.910156 18.75 -25.113281 19.1875 -24.1875 C 19.632812 -23.269531 19.859375 -22.238281 19.859375 -21.09375 C 19.859375 -19.601562 19.539062 -18.207031 18.90625 -16.90625 C 18.269531 -15.601562 17.425781 -14.472656 16.375 -13.515625 C 15.332031 -12.566406 14.128906 -11.796875 12.765625 -11.203125 C 11.398438 -10.617188 10.003906 -10.296875 8.578125 -10.234375 C 8.703125 -9.316406 9.070312 -8.648438 9.6875 -8.234375 C 10.3125 -7.828125 11.050781 -7.625 11.90625 -7.625 C 12.539062 -7.625 13.160156 -7.78125 13.765625 -8.09375 C 14.367188 -8.414062 14.953125 -8.773438 15.515625 -9.171875 C 16.085938 -9.566406 16.648438 -9.921875 17.203125 -10.234375 C 17.765625 -10.554688 18.332031 -10.71875 18.90625 -10.71875 C 19.539062 -10.71875 20.109375 -10.507812 20.609375 -10.09375 C 21.117188 -9.6875 21.375 -9.148438 21.375 -8.484375 Z M 13.671875 -20.140625 C 13.671875 -20.554688 13.554688 -20.984375 13.328125 -21.421875 C 13.109375 -21.867188 12.757812 -22.09375 12.28125 -22.09375 C 11.582031 -22.09375 10.992188 -21.910156 10.515625 -21.546875 C 10.046875 -21.179688 9.648438 -20.71875 9.328125 -20.15625 C 9.015625 -19.601562 8.769531 -19.007812 8.59375 -18.375 C 8.414062 -17.75 8.3125 -17.164062 8.28125 -16.625 C 8.726562 -16.71875 9.257812 -16.84375 9.875 -17 C 10.5 -17.15625 11.085938 -17.367188 11.640625 -17.640625 C 12.203125 -17.910156 12.679688 -18.25 13.078125 -18.65625 C 13.472656 -19.070312 13.671875 -19.566406 13.671875 -20.140625 Z M 13.671875 -20.140625 "/></g></g><g transform="translate(276.013894, 185.697589)"><g><path d="M 12.53125 1.71875 C 10.269531 1.71875 8.507812 1.421875 7.25 0.828125 C 6 0.242188 5.066406 -0.582031 4.453125 -1.65625 C 3.835938 -2.738281 3.460938 -4.039062 3.328125 -5.5625 C 3.203125 -7.09375 3.140625 -8.796875 3.140625 -10.671875 C 3.140625 -12.160156 3.1875 -13.660156 3.28125 -15.171875 C 3.375 -16.679688 3.519531 -18.289062 3.71875 -20 C 3.269531 -20 2.914062 -19.988281 2.65625 -19.96875 C 2.40625 -19.957031 2.203125 -19.953125 2.046875 -19.953125 C 1.035156 -19.953125 0.15625 -20.171875 -0.59375 -20.609375 C -1.34375 -21.054688 -1.71875 -21.742188 -1.71875 -22.671875 C -1.71875 -23.242188 -1.5 -23.75 -1.0625 -24.1875 C -0.632812 -24.632812 -0.0859375 -25.015625 0.578125 -25.328125 C 1.242188 -25.648438 1.960938 -25.90625 2.734375 -26.09375 C 3.515625 -26.289062 4.253906 -26.421875 4.953125 -26.484375 C 4.953125 -27.367188 5.015625 -28.347656 5.140625 -29.421875 C 5.265625 -30.503906 5.492188 -31.515625 5.828125 -32.453125 C 6.160156 -33.390625 6.613281 -34.175781 7.1875 -34.8125 C 7.757812 -35.445312 8.488281 -35.765625 9.375 -35.765625 C 9.882812 -35.765625 10.335938 -35.613281 10.734375 -35.3125 C 11.128906 -35.007812 11.453125 -34.628906 11.703125 -34.171875 C 11.960938 -33.710938 12.15625 -33.195312 12.28125 -32.625 C 12.414062 -32.050781 12.484375 -31.492188 12.484375 -30.953125 C 12.484375 -30.316406 12.429688 -29.664062 12.328125 -29 C 12.234375 -28.332031 12.0625 -27.507812 11.8125 -26.53125 C 12.351562 -26.59375 12.71875 -26.628906 12.90625 -26.640625 C 13.09375 -26.660156 13.265625 -26.671875 13.421875 -26.671875 C 13.960938 -26.671875 14.523438 -26.625 15.109375 -26.53125 C 15.703125 -26.4375 16.242188 -26.273438 16.734375 -26.046875 C 17.234375 -25.828125 17.640625 -25.535156 17.953125 -25.171875 C 18.273438 -24.804688 18.4375 -24.367188 18.4375 -23.859375 C 18.4375 -23.285156 18.203125 -22.773438 17.734375 -22.328125 C 17.273438 -21.890625 16.695312 -21.507812 16 -21.1875 C 15.300781 -20.875 14.554688 -20.628906 13.765625 -20.453125 C 12.972656 -20.273438 12.226562 -20.15625 11.53125 -20.09375 C 11.332031 -18.789062 11.191406 -17.59375 11.109375 -16.5 C 11.035156 -15.40625 10.953125 -14.300781 10.859375 -13.1875 C 10.796875 -12.644531 10.738281 -12.097656 10.6875 -11.546875 C 10.644531 -10.992188 10.625 -10.429688 10.625 -9.859375 C 10.625 -9.441406 10.640625 -8.957031 10.671875 -8.40625 C 10.703125 -7.851562 10.8125 -7.320312 11 -6.8125 C 11.1875 -6.300781 11.488281 -5.863281 11.90625 -5.5 C 12.320312 -5.132812 12.894531 -4.953125 13.625 -4.953125 C 14.0625 -4.953125 14.519531 -4.988281 15 -5.0625 C 15.476562 -5.144531 15.957031 -5.1875 16.4375 -5.1875 C 17.257812 -5.1875 17.851562 -4.898438 18.21875 -4.328125 C 18.582031 -3.753906 18.765625 -3.023438 18.765625 -2.140625 C 18.765625 -1.472656 18.566406 -0.894531 18.171875 -0.40625 C 17.773438 0.0820312 17.273438 0.476562 16.671875 0.78125 C 16.066406 1.082031 15.390625 1.3125 14.640625 1.46875 C 13.898438 1.632812 13.195312 1.71875 12.53125 1.71875 Z M 12.53125 1.71875 "/></g></g><g transform="translate(294.298442, 185.697589)"><g><path d="M 15.375 -26.1875 C 15.375 -25.269531 15.066406 -24.585938 14.453125 -24.140625 C 13.835938 -23.703125 13.144531 -23.28125 12.375 -22.875 C 11.613281 -22.476562 10.921875 -22.007812 10.296875 -21.46875 C 9.679688 -20.9375 9.375 -20.128906 9.375 -19.046875 C 9.375 -18.472656 9.507812 -17.976562 9.78125 -17.5625 C 10.050781 -17.15625 10.382812 -16.785156 10.78125 -16.453125 C 11.175781 -16.117188 11.613281 -15.773438 12.09375 -15.421875 C 12.570312 -15.078125 13.007812 -14.679688 13.40625 -14.234375 C 13.800781 -13.796875 14.132812 -13.257812 14.40625 -12.625 C 14.675781 -11.988281 14.8125 -11.207031 14.8125 -10.28125 C 14.8125 -8.945312 14.46875 -7.632812 13.78125 -6.34375 C 13.101562 -5.0625 12.234375 -3.921875 11.171875 -2.921875 C 10.109375 -1.921875 8.910156 -1.117188 7.578125 -0.515625 C 6.242188 0.078125 4.925781 0.375 3.625 0.375 C 3.082031 0.375 2.539062 0.332031 2 0.25 C 1.457031 0.175781 0.972656 0.03125 0.546875 -0.1875 C 0.117188 -0.414062 -0.234375 -0.726562 -0.515625 -1.125 C -0.804688 -1.519531 -0.953125 -2.035156 -0.953125 -2.671875 C -0.953125 -3.554688 -0.773438 -4.242188 -0.421875 -4.734375 C -0.078125 -5.234375 0.363281 -5.625 0.90625 -5.90625 C 1.445312 -6.1875 2.023438 -6.40625 2.640625 -6.5625 C 3.265625 -6.726562 3.84375 -6.929688 4.375 -7.171875 C 4.914062 -7.410156 5.359375 -7.71875 5.703125 -8.09375 C 6.054688 -8.476562 6.234375 -9.019531 6.234375 -9.71875 C 6.234375 -10.382812 5.972656 -11.070312 5.453125 -11.78125 C 4.929688 -12.5 4.351562 -13.257812 3.71875 -14.0625 C 3.082031 -14.875 2.5 -15.738281 1.96875 -16.65625 C 1.445312 -17.582031 1.1875 -18.601562 1.1875 -19.71875 C 1.1875 -21.082031 1.460938 -22.34375 2.015625 -23.5 C 2.578125 -24.65625 3.328125 -25.660156 4.265625 -26.515625 C 5.203125 -27.378906 6.269531 -28.054688 7.46875 -28.546875 C 8.675781 -29.035156 9.945312 -29.28125 11.28125 -29.28125 C 11.789062 -29.28125 12.289062 -29.234375 12.78125 -29.140625 C 13.28125 -29.046875 13.71875 -28.878906 14.09375 -28.640625 C 14.476562 -28.398438 14.785156 -28.082031 15.015625 -27.6875 C 15.253906 -27.289062 15.375 -26.789062 15.375 -26.1875 Z M 15.375 -26.1875 "/></g></g></g></svg>